<svg width="6" height="6" viewBox="0 0 6 6" fill="none" xmlns="http://www.w3.org/2000/svg">
<path d="M5.47467 0.866051C5.39958 0.843748 5.32378 0.824002 5.2474 0.806846C5.16743 0.788959 5.08696 0.773403 5.00611 0.760197C4.71674 0.712555 4.40064 0.690065 4.06119 0.690065H1.19756C1.12922 0.689907 1.06173 0.705517 1.00018 0.73572C0.933234 0.768226 0.875091 0.81684 0.830781 0.877353C0.78647 0.937867 0.757328 1.00845 0.745879 1.08301L0.137207 5.00875L0.119629 5.12319C0.159668 4.86487 0.376855 4.67434 0.634082 4.67434H1.70611C3.8115 4.67434 5.46002 3.80446 5.94158 1.28808C5.95592 1.21365 5.96795 1.14154 5.979 1.07045C5.85705 1.00497 5.72506 0.948382 5.58291 0.900422C5.54704 0.888327 5.51097 0.876868 5.47471 0.866051" fill="#1F264F"/>
</svg>
